G75*
%MOIN*%
%OFA0B0*%
%FSLAX24Y24*%
%IPPOS*%
%LPD*%
%AMOC8*
5,1,8,0,0,1.08239X$1,22.5*
%
%ADD10R,0.0661X0.1291*%
%ADD11R,0.0700X0.0600*%
%ADD12R,0.0661X0.0661*%
%ADD13R,0.0283X0.0913*%
%ADD14C,0.0720*%
%ADD15C,0.1062*%
%ADD16R,0.0450X0.0300*%
%ADD17R,0.0693X0.0614*%
%ADD18R,0.0614X0.0693*%
%ADD19R,0.0630X0.0472*%
%ADD20R,0.4498X0.4652*%
%ADD21R,0.0934X0.0504*%
%ADD22R,0.1369X0.1318*%
%ADD23R,0.1291X0.0661*%
%ADD24C,0.0638*%
%ADD25C,0.1559*%
%ADD26R,0.0945X0.2323*%
%ADD27R,0.0567X0.0567*%
%ADD28R,0.0354X0.0236*%
%ADD29C,0.0756*%
%ADD30R,0.0472X0.0866*%
%ADD31C,0.0475*%
%ADD32C,0.0523*%
%ADD33R,0.0475X0.0475*%
D10*
X004566Y001947D03*
X004566Y003837D03*
X013990Y004051D03*
X013990Y002162D03*
D11*
X015325Y005450D03*
X015325Y006200D03*
D12*
X016074Y003330D03*
X017570Y003330D03*
X024148Y013546D03*
X025644Y013546D03*
D13*
X001099Y001829D03*
X001599Y001829D03*
X002099Y001829D03*
X002599Y001829D03*
X002599Y003877D03*
X002099Y003877D03*
X001599Y003877D03*
X001099Y003877D03*
X017560Y006644D03*
X018060Y006644D03*
X018560Y006644D03*
X019060Y006644D03*
X019060Y008691D03*
X018560Y008691D03*
X018060Y008691D03*
X017560Y008691D03*
D14*
X016266Y007904D03*
X015266Y007904D03*
X014266Y007904D03*
X013266Y007904D03*
X012266Y007904D03*
X011266Y007904D03*
X023876Y015949D03*
X025656Y015949D03*
X025648Y005156D03*
X024648Y005156D03*
X026648Y005156D03*
X027648Y005156D03*
D15*
X026146Y014969D03*
X023386Y014969D03*
D16*
X016936Y015150D03*
X016936Y014650D03*
X016936Y014150D03*
X016936Y013650D03*
X016936Y013150D03*
X016936Y012650D03*
X016936Y012150D03*
X016936Y011650D03*
X016936Y011150D03*
X016936Y010650D03*
X016936Y010150D03*
X012936Y010150D03*
X012936Y010650D03*
X012936Y011150D03*
X012936Y011650D03*
X012936Y012150D03*
X012936Y012650D03*
X012936Y013150D03*
X012936Y013650D03*
X012936Y014150D03*
X012936Y014650D03*
X012936Y015150D03*
X012936Y015650D03*
X012936Y016150D03*
X012936Y016650D03*
X016936Y016650D03*
X016936Y016150D03*
X016936Y015650D03*
D17*
X018598Y014368D03*
X018598Y013620D03*
X018586Y012963D03*
X018586Y012215D03*
X018006Y010900D03*
X018006Y010152D03*
X011711Y013794D03*
X011711Y014542D03*
X008791Y012237D03*
X008791Y011489D03*
X010571Y010477D03*
X010571Y009729D03*
X007534Y014176D03*
X006873Y014180D03*
X006168Y014195D03*
X006168Y014943D03*
X006873Y014928D03*
X007534Y014924D03*
X021668Y015963D03*
X022506Y015971D03*
X022506Y016719D03*
X021668Y016711D03*
X001180Y005825D03*
X001180Y005077D03*
D18*
X016302Y004333D03*
X017050Y004333D03*
X019983Y009522D03*
X020731Y009522D03*
X022432Y013018D03*
X023180Y013018D03*
X027018Y016691D03*
X027766Y016691D03*
D19*
X016928Y006333D03*
X016062Y005959D03*
X016928Y005585D03*
D20*
X008437Y003645D03*
D21*
X011717Y003645D03*
X011717Y002975D03*
X011717Y002305D03*
X011717Y004315D03*
X011717Y004985D03*
D22*
X019191Y003862D03*
X023348Y003862D03*
D23*
X025257Y002906D03*
X027147Y002906D03*
D24*
X023317Y007534D03*
X022317Y008038D03*
X023314Y008530D03*
X022310Y009030D03*
X023317Y009530D03*
X022302Y010010D03*
X023317Y010522D03*
X022302Y011026D03*
D25*
X025817Y011530D03*
X025817Y007042D03*
D26*
X019991Y011581D03*
X019991Y015321D03*
D27*
X027790Y015140D03*
X027790Y015967D03*
X020727Y008817D03*
X020727Y007991D03*
D28*
X005396Y014449D03*
X004845Y014449D03*
X004845Y014941D03*
X005396Y014941D03*
X005396Y015434D03*
X005396Y015926D03*
X004845Y015926D03*
X004845Y015434D03*
D29*
X020113Y006613D03*
X021085Y006609D03*
D30*
X007853Y006840D03*
X007262Y006840D03*
X006672Y006840D03*
X006081Y006840D03*
X005491Y006840D03*
X004900Y006840D03*
X004310Y006840D03*
X003719Y006840D03*
X003719Y012155D03*
X004310Y012155D03*
X004900Y012155D03*
X005491Y012155D03*
X006081Y012155D03*
X006672Y012155D03*
X007262Y012155D03*
X007853Y012155D03*
D31*
X017506Y013089D03*
X021475Y010038D03*
X018471Y005503D03*
X016471Y005003D03*
X003471Y004003D03*
X018471Y016503D03*
X027971Y014503D03*
D32*
X015002Y003340D03*
D33*
X012660Y004314D03*
X018573Y007880D03*
X020117Y007971D03*
X019459Y006609D03*
X016963Y009014D03*
X018979Y009550D03*
X016171Y010703D03*
X014680Y012101D03*
X012286Y012144D03*
X010671Y012603D03*
X009971Y013203D03*
X011132Y013798D03*
X011113Y014605D03*
X012271Y015203D03*
X011741Y015663D03*
X011014Y016148D03*
X009664Y016188D03*
X006810Y015503D03*
X006188Y013688D03*
X003762Y014447D03*
X003814Y015140D03*
X003983Y015904D03*
X002971Y012603D03*
X002471Y012603D03*
X001971Y012603D03*
X001471Y012603D03*
X000971Y012603D03*
X006171Y010203D03*
X007871Y010403D03*
X006671Y011503D03*
X010571Y011103D03*
X013684Y010436D03*
X017522Y012546D03*
X017774Y012026D03*
X019353Y013219D03*
X017467Y013625D03*
X018652Y015632D03*
X017664Y016136D03*
X015829Y016420D03*
X013794Y016987D03*
X021447Y013963D03*
X021625Y013014D03*
X022459Y003314D03*
X005481Y008813D03*
X003771Y007903D03*
X004871Y007503D03*
X002471Y006503D03*
X001971Y006503D03*
X001471Y006503D03*
X000971Y006503D03*
M02*
