%
M48
M72
T01C0.0236
T02C0.0276
T03C0.0320
T04C0.0354
T05C0.0400
T06C0.0590
T07C0.1299
%
T01
X22459Y3314
X18471Y5503
X19459Y6609
X18573Y7880
X20117Y7971
X18979Y9550
X16963Y9014
X16171Y10703
X14680Y12101
X12286Y12144
X10671Y12603
X9971Y13203
X11132Y13798
X11113Y14605
X12271Y15203
X11741Y15663
X11014Y16148
X9664Y16188
X6810Y15503
X6188Y13688
X3762Y14447
X3814Y15140
X3983Y15904
X2971Y12603
X2471Y12603
X1971Y12603
X1471Y12603
X971Y12603
X6171Y10203
X7871Y10403
X6671Y11503
X10571Y11103
X13684Y10436
X17522Y12546
X17506Y13089
X17467Y13625
X19353Y13219
X17774Y12026
X21447Y13963
X21625Y13014
X21475Y10038
X16471Y5003
X12660Y4314
X5481Y8813
X3771Y7903
X4871Y7503
X2471Y6503
X1971Y6503
X1471Y6503
X971Y6503
X3471Y4003
X18652Y15632
X18471Y16503
X17664Y16136
X15829Y16420
X13794Y16987
X27971Y14503
T02
X15002Y3340
T03
X21085Y6609
X20113Y6613
T04
X23317Y7534
X22317Y8038
X23314Y8530
X22310Y9030
X23317Y9530
X22302Y10010
X23317Y10522
X22302Y11026
T05
X27648Y5156
X26648Y5156
X25648Y5156
X24648Y5156
X25656Y15949
X23876Y15949
X16266Y7904
X15266Y7904
X14266Y7904
X13266Y7904
X12266Y7904
X11266Y7904
T06
X23386Y14969
X26146Y14969
T07
X25817Y7042
X25817Y11530
M30
